<mxfile host="65bd71144e">
    <diagram id="MvXd3hHmSmmwAjp6aix1" name="Page-1">
        <mxGraphModel dx="2174" dy="776" grid="1" gridSize="10" guides="1" tooltips="1" connect="1" arrows="1" fold="1" page="1" pageScale="1" pageWidth="827" pageHeight="1169" math="0" shadow="0">
            <root>
                <mxCell id="0"/>
                <mxCell id="1" parent="0"/>
                <mxCell id="3" value="Programmet starter" style="rounded=1;whiteSpace=wrap;html=1;" vertex="1" parent="1">
                    <mxGeometry x="40" y="40" width="120" height="60" as="geometry"/>
                </mxCell>
                <mxCell id="4" value="" style="endArrow=classic;html=1;exitX=0.5;exitY=1;exitDx=0;exitDy=0;" edge="1" parent="1" source="3">
                    <mxGeometry width="50" height="50" relative="1" as="geometry">
                        <mxPoint x="360" y="250" as="sourcePoint"/>
                        <mxPoint x="100" y="160" as="targetPoint"/>
                    </mxGeometry>
                </mxCell>
                <mxCell id="20" style="edgeStyle=none;html=1;exitX=0.5;exitY=1;exitDx=0;exitDy=0;" edge="1" parent="1" source="12">
                    <mxGeometry relative="1" as="geometry">
                        <mxPoint x="120" y="520" as="targetPoint"/>
                    </mxGeometry>
                </mxCell>
                <mxCell id="12" value="Oppretter klassen ControlSystem og lager variabler" style="swimlane;fontStyle=0;childLayout=stackLayout;horizontal=1;startSize=26;fillColor=none;horizontalStack=0;resizeParent=1;resizeParentMax=0;resizeLast=0;collapsible=1;marginBottom=0;" vertex="1" parent="1">
                    <mxGeometry x="-40" y="160" width="320" height="270" as="geometry"/>
                </mxCell>
                <mxCell id="19" value="&lt;p class=&quot;MsoNormal&quot;&gt;initial_temperature=15,&lt;br&gt;&#10;target_temperature=25,&lt;br&gt;&#10;ambient_temperature=-5,&lt;br&gt;&#10;Kc=0.5,&lt;br&gt;&#10;Ti=1,&lt;br&gt;&#10;Td=0.1,&lt;br&gt;&#10;time_constant=2,&lt;br&gt;&#10;time_step=2,&lt;/p&gt;" style="text;whiteSpace=wrap;html=1;rotation=0;" vertex="1" parent="12">
                    <mxGeometry y="26" width="320" height="244" as="geometry"/>
                </mxCell>
                <mxCell id="24" style="edgeStyle=none;html=1;exitX=0.5;exitY=1;exitDx=0;exitDy=0;" edge="1" parent="1" source="22" target="23">
                    <mxGeometry relative="1" as="geometry"/>
                </mxCell>
                <mxCell id="22" value="Vis nåværende temperatur" style="html=1;" vertex="1" parent="1">
                    <mxGeometry x="30" y="520" width="170" height="50" as="geometry"/>
                </mxCell>
                <mxCell id="23" value="La brukeren velge&lt;br&gt;mellom 4 valg" style="html=1;" vertex="1" parent="1">
                    <mxGeometry x="60" y="600" width="110" height="50" as="geometry"/>
                </mxCell>
                <mxCell id="25" value="1. Velg temperatur" style="endArrow=block;endFill=1;html=1;edgeStyle=orthogonalEdgeStyle;align=left;verticalAlign=top;" edge="1" parent="1">
                    <mxGeometry x="-0.6522" y="30" relative="1" as="geometry">
                        <mxPoint x="160" y="640" as="sourcePoint"/>
                        <mxPoint x="400" y="640" as="targetPoint"/>
                        <mxPoint as="offset"/>
                    </mxGeometry>
                </mxCell>
                <mxCell id="27" value="2. Velg effekt" style="endArrow=block;endFill=1;html=1;edgeStyle=orthogonalEdgeStyle;align=left;verticalAlign=top;exitX=0.75;exitY=1;exitDx=0;exitDy=0;" edge="1" parent="1" source="23">
                    <mxGeometry x="-0.6842" y="-20" relative="1" as="geometry">
                        <mxPoint x="170" y="650" as="sourcePoint"/>
                        <mxPoint x="280" y="760" as="targetPoint"/>
                        <mxPoint as="offset"/>
                        <Array as="points">
                            <mxPoint x="280" y="670"/>
                        </Array>
                    </mxGeometry>
                </mxCell>
                <mxCell id="29" value="3. Simuler" style="endArrow=block;endFill=1;html=1;edgeStyle=orthogonalEdgeStyle;align=left;verticalAlign=top;exitX=0.25;exitY=1;exitDx=0;exitDy=0;" edge="1" parent="1" source="23">
                    <mxGeometry x="-0.0151" y="25" relative="1" as="geometry">
                        <mxPoint x="70" y="700" as="sourcePoint"/>
                        <mxPoint x="-40" y="750" as="targetPoint"/>
                        <mxPoint as="offset"/>
                        <Array as="points">
                            <mxPoint x="88" y="690"/>
                            <mxPoint x="50" y="690"/>
                            <mxPoint x="50" y="750"/>
                        </Array>
                    </mxGeometry>
                </mxCell>
                <mxCell id="31" value="4. Plot og avslutt" style="endArrow=block;endFill=1;html=1;edgeStyle=orthogonalEdgeStyle;align=left;verticalAlign=top;exitX=0;exitY=0.5;exitDx=0;exitDy=0;" edge="1" parent="1" source="23">
                    <mxGeometry x="0.1912" y="-35" relative="1" as="geometry">
                        <mxPoint x="170" y="650" as="sourcePoint"/>
                        <mxPoint x="-140" y="600" as="targetPoint"/>
                        <mxPoint as="offset"/>
                    </mxGeometry>
                </mxCell>
                <mxCell id="32" value="1" style="edgeLabel;resizable=0;html=1;align=left;verticalAlign=bottom;" connectable="0" vertex="1" parent="31">
                    <mxGeometry x="-1" relative="1" as="geometry"/>
                </mxCell>
                <mxCell id="33" value="Skriv inn&amp;nbsp;&lt;br&gt;ønsket temperatur" style="html=1;" vertex="1" parent="1">
                    <mxGeometry x="400" y="600" width="110" height="50" as="geometry"/>
                </mxCell>
                <mxCell id="34" value="Gir den ønskede temperatuern til programmet" style="html=1;verticalAlign=bottom;endArrow=open;dashed=1;endSize=8;exitX=0;exitY=0;exitDx=0;exitDy=0;entryX=1;entryY=0;entryDx=0;entryDy=0;" edge="1" parent="1" source="33" target="23">
                    <mxGeometry x="-0.8414" y="-12" relative="1" as="geometry">
                        <mxPoint x="290" y="730" as="sourcePoint"/>
                        <mxPoint x="210" y="730" as="targetPoint"/>
                        <mxPoint as="offset"/>
                    </mxGeometry>
                </mxCell>
                <mxCell id="35" value="Skriv inn ønsket &lt;br&gt;effekt" style="html=1;" vertex="1" parent="1">
                    <mxGeometry x="230" y="760" width="110" height="50" as="geometry"/>
                </mxCell>
                <mxCell id="36" value="Gir den ønskede effekten til programmet" style="html=1;verticalAlign=bottom;endArrow=open;dashed=1;endSize=8;exitX=0;exitY=0;exitDx=0;exitDy=0;entryX=0.5;entryY=1;entryDx=0;entryDy=0;" edge="1" parent="1" source="35" target="23">
                    <mxGeometry x="-0.2655" y="84" relative="1" as="geometry">
                        <mxPoint x="290" y="720" as="sourcePoint"/>
                        <mxPoint x="120" y="770" as="targetPoint"/>
                        <mxPoint x="1" as="offset"/>
                    </mxGeometry>
                </mxCell>
                <mxCell id="38" value="Simulerer kontrolsystemet&lt;br&gt;- Printer resultat&lt;br&gt;- Pusher data til ulike arrayer" style="html=1;" vertex="1" parent="1">
                    <mxGeometry x="-240" y="710" width="200" height="90" as="geometry"/>
                </mxCell>
                <mxCell id="39" value="Gir den ønskede effekten til programmet" style="html=1;verticalAlign=bottom;endArrow=open;dashed=1;endSize=8;exitX=1;exitY=0;exitDx=0;exitDy=0;entryX=0;entryY=1;entryDx=0;entryDy=0;" edge="1" parent="1" source="38" target="23">
                    <mxGeometry x="-1" y="110" relative="1" as="geometry">
                        <mxPoint x="240" y="770" as="sourcePoint"/>
                        <mxPoint x="125" y="660" as="targetPoint"/>
                        <mxPoint x="-53" y="84" as="offset"/>
                    </mxGeometry>
                </mxCell>
                <mxCell id="41" value="Grafen kommer på&lt;br&gt;skjærmen og programmet&lt;br&gt;avsluttes" style="rounded=1;whiteSpace=wrap;html=1;" vertex="1" parent="1">
                    <mxGeometry x="-300" y="570" width="160" height="70" as="geometry"/>
                </mxCell>
            </root>
        </mxGraphModel>
    </diagram>
</mxfile>